# xmcd
#
# Track frame offsets:
#	150
#	13565
#	28303
#	46947
#	67632
#	85739
#	104598
#	129307
#	143282
#	157676
#	178785
#	194801
#	209663
#	230452
#	247537
#	264599
#	280957
#	292582
#	306592
#	325924
#
# Disc length: 4630 seconds
#
# Revision: 1
# Processed by: cddbd v1.5.2PL0 Copyright (c) Steve Scherf et al.
# Submitted via: audiograbber 1.83.01
#
DISCID=11121414
DTITLE=Various Artist - Saturday Night Country Hottest Hits Volume 3
DYEAR=2007
DGENRE=Country
TTITLE0=Donna Boyd - A Good Day
TTITLE1=Allan Caswell and Drew McAlister - A Little Bit Of Country In Us All
TTITLE2=Anne McCue - From Bakersfield To Saigon
TTITLE3=Jeanette Wormald - Boundary Rider's Daughter
TTITLE4=John Schumann - The Bush Girl
TTITLE5=The Sunny Cowgirls - Dry Land Crop
TTITLE6=Don Walker - Get Along
TTITLE7=Katie Brianna and The Stormwater Boys - Jindabyne Fair
TTITLE8=John Williamson - Desert Child
TTITLE9=Felicity Urquhart - Lonely Girl
TTITLE10=The Fargone Beauties - Stairway To Heaven
TTITLE11=Melinda Schneider - Sometimes It Takes Balls To Be A Woman
TTITLE12=Matt Scullion - Hard Earned Money
TTITLE13=Tracy Coster - I Don't Want To Talk About Rain
TTITLE14=Greg Champion - Been There Done That
TTITLE15=Peter Denahy - One Quiet Day
TTITLE16=Anne Kirkpatrick - Bluer Skies
TTITLE17=Bob Pigott - Fifty Years Ago
TTITLE18=Adam Brand - Life Will Bring You Home
TTITLE19=Lee Kernaghan - Close As A Whisper (The Gift)
EXTD=YEAR: 2007
EXTT0=
EXTT1=
EXTT2=
EXTT3=
EXTT4=
EXTT5=
EXTT6=
EXTT7=
EXTT8=
EXTT9=
EXTT10=
EXTT11=
EXTT12=
EXTT13=
EXTT14=
EXTT15=
EXTT16=
EXTT17=
EXTT18=
EXTT19=
PLAYORDER=
